<?xml version="1.0" encoding="UTF-8"?>
<svg xmlns="http://www.w3.org/2000/svg" xmlns:xlink="http://www.w3.org/1999/xlink" width="325.74pt" height="214.04pt" viewBox="0 0 325.74 214.04" version="1.1">
<defs>
<clipPath id="clip1">
  <path d="M 188 180 L 217 180 L 217 214.039063 L 188 214.039063 Z M 188 180 "/>
</clipPath>
<clipPath id="clip2">
  <path d="M 277 113 L 325.738281 113 L 325.738281 169 L 277 169 Z M 277 113 "/>
</clipPath>
<clipPath id="clip3">
  <path d="M 306 189 L 325.738281 189 L 325.738281 214 L 306 214 Z M 306 189 "/>
</clipPath>
</defs>
<g id="surface1">
<g clip-path="url(#clip1)" clip-rule="nonzero">
<path style=" stroke:none;fill-rule:evenodd;fill:rgb(13.699341%,12.199402%,12.5%);fill-opacity:1;" d="M 201.074219 214.039063 C 200.484375 213.914063 199.898438 213.789063 199.3125 213.660156 C 194.511719 212.613281 191.1875 209.773438 189.496094 205.195313 C 187.644531 200.1875 187.519531 195.070313 189.214844 189.992188 C 191.226563 183.972656 196.128906 180.46875 202.46875 180.335938 C 204.628906 180.292969 206.742188 180.515625 208.761719 181.324219 C 212.652344 182.882813 215.058594 185.714844 215.980469 189.800781 C 216.03125 190.03125 216.035156 190.273438 216.074219 190.644531 C 214.714844 190.789063 213.410156 190.703125 212.109375 190.695313 C 211.996094 190.40625 211.886719 190.191406 211.820313 189.964844 C 210.875 186.773438 208.691406 184.960938 205.5 184.300781 C 203.90625 183.972656 202.289063 183.945313 200.691406 184.300781 C 197.660156 184.976563 195.472656 186.753906 194.042969 189.484375 C 193.28125 190.933594 192.820313 192.484375 192.648438 194.097656 C 192.332031 197.125 192.390625 200.144531 193.28125 203.097656 C 194.90625 208.46875 199.714844 211.246094 205.183594 209.980469 C 207.886719 209.359375 209.808594 207.726563 211.007813 205.28125 C 211.589844 204.097656 211.972656 202.816406 212.472656 201.503906 C 213.675781 201.503906 214.953125 201.503906 216.328125 201.503906 C 216.296875 201.910156 216.300781 202.265625 216.230469 202.601563 C 214.917969 209.046875 211.058594 212.742188 204.53125 213.824219 C 204.34375 213.855469 204.164063 213.96875 203.980469 214.039063 C 203.011719 214.039063 202.042969 214.039063 201.074219 214.039063 "/>
</g>
<path style=" stroke:none;fill-rule:evenodd;fill:rgb(93.299866%,17.599487%,16.499329%);fill-opacity:1;" d="M 180.796875 35.910156 C 180.769531 52.824219 167.078125 66.496094 150.183594 66.484375 C 133.25 66.46875 119.628906 52.773438 119.578125 35.90625 C 119.53125 19.433594 132.921875 5.222656 150.25 5.277344 C 167.203125 5.335938 180.824219 19.019531 180.796875 35.910156 "/>
<path style=" stroke:none;fill-rule:evenodd;fill:rgb(13.699341%,12.199402%,12.5%);fill-opacity:1;" d="M 14.558594 129.675781 C 14.855469 129.71875 15.015625 129.757813 15.171875 129.757813 C 19.890625 129.753906 24.613281 129.800781 29.332031 129.707031 C 30.640625 129.679688 31.976563 129.375 33.230469 128.972656 C 35.957031 128.089844 37.703125 126.179688 38.480469 123.414063 C 39.113281 121.160156 39.125 118.863281 38.8125 116.570313 C 38.34375 113.128906 36.328125 110.953125 33.023438 110.023438 C 31.75 109.660156 30.421875 109.347656 29.109375 109.3125 C 24.472656 109.1875 19.835938 109.1875 15.195313 109.144531 C 15.003906 109.144531 14.816406 109.214844 14.558594 109.265625 C 14.558594 116.074219 14.558594 122.832031 14.558594 129.675781 Z M 14.5 141.769531 C 14.5 150.214844 14.5 158.515625 14.5 166.894531 C 9.648438 166.894531 4.941406 166.894531 0.214844 166.894531 C 0.207031 166.886719 0.171875 166.867188 0.148438 166.839844 C 0.121094 166.808594 0.0898438 166.773438 0.0820313 166.738281 C 0.0507813 166.539063 0 166.34375 0 166.144531 C 0 143.328125 0.00390625 120.515625 0.0117188 97.699219 C 0.0117188 97.585938 0.078125 97.472656 0.140625 97.261719 C 0.507813 97.238281 0.898438 97.199219 1.285156 97.199219 C 11.542969 97.195313 21.800781 97.203125 32.054688 97.195313 C 34.617188 97.191406 37.132813 97.507813 39.574219 98.277344 C 45.542969 100.167969 49.722656 104.03125 51.84375 109.917969 C 54.277344 116.664063 54.105469 123.40625 51.085938 129.953125 C 47.867188 136.929688 42.277344 140.679688 34.707031 141.546875 C 33.265625 141.710938 31.804688 141.753906 30.355469 141.757813 C 25.550781 141.785156 20.746094 141.769531 15.941406 141.769531 C 15.507813 141.769531 15.078125 141.769531 14.5 141.769531 "/>
<path style=" stroke:none;fill-rule:evenodd;fill:rgb(13.699341%,12.199402%,12.5%);fill-opacity:1;" d="M 178.570313 140.9375 C 178.539063 138.21875 178.164063 135.148438 176.914063 132.242188 C 175.226563 128.308594 172.320313 125.96875 167.984375 125.648438 C 163.003906 125.277344 159.175781 127.265625 157.144531 131.859375 C 156.933594 132.335938 156.722656 132.820313 156.574219 133.320313 C 155.148438 138.136719 154.851563 143.019531 156.023438 147.90625 C 157.246094 153.003906 160.511719 156.902344 166.613281 157.21875 C 170.125 157.398438 173.0625 156.234375 175.148438 153.355469 C 175.941406 152.257813 176.585938 151.015625 177.101563 149.757813 C 178.195313 147.074219 178.582031 144.238281 178.570313 140.9375 Z M 155.914063 160.632813 C 155.914063 169.421875 155.914063 178.21875 155.914063 186.980469 C 154.929688 187.273438 143.914063 187.332031 142.503906 187.0625 C 142.503906 163.226563 142.503906 139.378906 142.503906 115.53125 C 143.359375 115.230469 153.617188 115.148438 155.289063 115.457031 C 155.304688 116.613281 155.3125 117.8125 155.332031 119.007813 C 155.351563 120.195313 155.273438 121.394531 155.378906 122.578125 C 155.472656 122.605469 155.5625 122.632813 155.652344 122.660156 C 155.960938 122.210938 156.265625 121.757813 156.570313 121.304688 C 158.675781 118.203125 161.375 115.835938 165.023438 114.773438 C 172.652344 112.550781 181.710938 114.492188 187.253906 122.0625 C 189.535156 125.183594 190.945313 128.683594 191.675781 132.453125 C 193.101563 139.859375 192.71875 147.15625 190.152344 154.285156 C 189.230469 156.847656 187.929688 159.214844 186.191406 161.324219 C 182.71875 165.535156 178.234375 167.792969 172.8125 168.242188 C 170.414063 168.4375 168.054688 168.320313 165.714844 167.761719 C 161.964844 166.863281 159.042969 164.792969 156.941406 161.558594 C 156.710938 161.203125 156.464844 160.859375 156.226563 160.511719 C 156.121094 160.550781 156.019531 160.589844 155.914063 160.632813 "/>
<path style=" stroke:none;fill-rule:evenodd;fill:rgb(13.699341%,12.199402%,12.5%);fill-opacity:1;" d="M 226.261719 142.125 C 224.621094 142.679688 223.058594 143.304688 221.441406 143.726563 C 219.808594 144.152344 218.117188 144.351563 216.464844 144.703125 C 215.167969 144.984375 213.855469 145.257813 212.609375 145.695313 C 209.210938 146.894531 207.742188 149.09375 207.816406 152.675781 C 207.882813 155.90625 209.863281 158.246094 213.070313 158.574219 C 217.277344 159.011719 220.957031 157.726563 223.917969 154.652344 C 225.394531 153.125 226.242188 151.25 226.316406 149.113281 C 226.386719 146.894531 226.34375 144.679688 226.339844 142.460938 C 226.339844 142.316406 226.273438 142.175781 226.261719 142.125 Z M 208.9375 131.832031 C 204.621094 131.832031 200.363281 131.832031 195.972656 131.832031 C 196.0625 131.152344 196.097656 130.554688 196.222656 129.976563 C 196.515625 128.640625 196.765625 127.285156 197.183594 125.984375 C 198.9375 120.496094 202.597656 116.816406 208.128906 115.28125 C 215.117188 113.339844 222.175781 113.308594 229.148438 115.46875 C 230.710938 115.953125 232.230469 116.710938 233.617188 117.578125 C 237.511719 120.015625 239.421875 123.65625 239.5625 128.207031 C 239.640625 130.792969 239.582031 133.378906 239.582031 135.964844 C 239.585938 142.992188 239.558594 150.019531 239.605469 157.050781 C 239.613281 158.574219 239.808594 160.105469 240.039063 161.613281 C 240.246094 162.976563 240.855469 164.140625 242.144531 164.84375 C 242.347656 164.953125 242.519531 165.257813 242.554688 165.496094 C 242.617188 165.925781 242.570313 166.371094 242.570313 166.894531 C 237.683594 166.894531 232.890625 166.894531 228.050781 166.894531 C 227.242188 165.097656 227.023438 163.128906 226.730469 161.046875 C 226.445313 161.234375 226.214844 161.355469 226.03125 161.519531 C 225.3125 162.175781 224.636719 162.867188 223.898438 163.5 C 220.539063 166.390625 216.625 167.902344 212.214844 168.242188 C 209.527344 168.449219 206.894531 168.292969 204.308594 167.496094 C 198.410156 165.6875 194.730469 161.023438 194.34375 154.851563 C 194.203125 152.664063 194.3125 150.488281 194.871094 148.359375 C 196.058594 143.863281 198.800781 140.660156 202.976563 138.652344 C 205.601563 137.390625 208.417969 136.914063 211.261719 136.5 C 214.855469 135.972656 218.441406 135.40625 222.03125 134.855469 C 222.230469 134.824219 222.4375 134.804688 222.628906 134.757813 C 224.34375 134.300781 225.9375 133.605469 226.257813 131.644531 C 226.609375 129.484375 226.109375 127.511719 224.183594 126.191406 C 223.566406 125.769531 222.832031 125.449219 222.105469 125.25 C 219.695313 124.589844 217.230469 124.558594 214.785156 124.996094 C 211.753906 125.542969 209.949219 127.414063 209.261719 130.390625 C 209.160156 130.820313 209.066406 131.257813 208.9375 131.832031 "/>
<g clip-path="url(#clip2)" clip-rule="nonzero">
<path style=" stroke:none;fill-rule:evenodd;fill:rgb(13.699341%,12.199402%,12.5%);fill-opacity:1;" d="M 309.484375 142.066406 C 308.136719 142.570313 306.882813 143.132813 305.574219 143.5 C 304.105469 143.910156 302.578125 144.121094 301.089844 144.464844 C 299.210938 144.894531 297.292969 145.238281 295.476563 145.863281 C 292.335938 146.9375 290.589844 149.550781 291.144531 153.5625 C 291.535156 156.386719 293.402344 158.273438 296.238281 158.570313 C 300.5 159.019531 304.210938 157.726563 307.195313 154.605469 C 308.542969 153.203125 309.402344 151.492188 309.496094 149.53125 C 309.609375 147.113281 309.574219 144.695313 309.597656 142.277344 C 309.597656 142.210938 309.527344 142.140625 309.484375 142.066406 Z M 311.113281 166.894531 C 310.699219 164.964844 310.285156 163.046875 309.839844 160.972656 C 309.316406 161.480469 308.859375 161.917969 308.40625 162.359375 C 305.566406 165.136719 302.261719 167.066406 298.339844 167.832031 C 294.226563 168.640625 290.140625 168.640625 286.195313 167.007813 C 281.105469 164.898438 278.347656 161.023438 277.664063 155.589844 C 277.371094 153.273438 277.503906 150.988281 278.027344 148.730469 C 279.054688 144.304688 281.621094 141.035156 285.65625 138.929688 C 287.9375 137.742188 290.390625 137.113281 292.921875 136.738281 C 297.074219 136.121094 301.222656 135.488281 305.363281 134.828125 C 306.070313 134.714844 306.78125 134.484375 307.433594 134.1875 C 309 133.460938 309.6875 132.164063 309.601563 130.464844 C 309.457031 127.734375 308.140625 126.023438 305.484375 125.28125 C 302.878906 124.554688 300.207031 124.5 297.574219 125.09375 C 294.714844 125.738281 293.109375 127.679688 292.464844 130.476563 C 292.363281 130.910156 292.277344 131.34375 292.171875 131.839844 C 287.878906 131.839844 283.617188 131.839844 279.222656 131.839844 C 279.277344 131.316406 279.285156 130.839844 279.390625 130.390625 C 279.808594 128.628906 280.113281 126.816406 280.730469 125.125 C 282.714844 119.6875 286.695313 116.363281 292.238281 115.019531 C 298.65625 113.464844 305.113281 113.433594 311.527344 115.175781 C 313.527344 115.71875 315.410156 116.546875 317.125 117.722656 C 320.660156 120.144531 322.539063 123.503906 322.761719 127.785156 C 322.800781 128.511719 322.800781 129.238281 322.800781 129.964844 C 322.804688 138.8125 322.785156 147.65625 322.820313 156.503906 C 322.828125 158.109375 322.992188 159.726563 323.207031 161.320313 C 323.402344 162.757813 323.96875 164.035156 325.324219 164.820313 C 325.519531 164.933594 325.671875 165.25 325.707031 165.492188 C 325.765625 165.921875 325.722656 166.367188 325.722656 166.894531 C 320.871094 166.894531 316.125 166.894531 311.113281 166.894531 "/>
</g>
<path style=" stroke:none;fill-rule:evenodd;fill:rgb(13.699341%,12.199402%,12.5%);fill-opacity:1;" d="M 123.839844 135.945313 C 123.773438 130.574219 120.203125 124.839844 113.066406 125.03125 C 110.289063 125.109375 107.8125 125.914063 105.914063 128.03125 C 103.925781 130.253906 103.136719 132.953125 102.835938 135.945313 C 109.917969 135.945313 116.878906 135.945313 123.839844 135.945313 Z M 137.765625 144.75 C 125.996094 144.75 114.300781 144.75 102.578125 144.75 C 102.515625 145.015625 102.425781 145.171875 102.449219 145.308594 C 102.742188 146.890625 102.917969 148.515625 103.378906 150.050781 C 104.566406 153.980469 107.210938 156.445313 111.285156 157.191406 C 112.699219 157.449219 114.1875 157.589844 115.609375 157.457031 C 119.183594 157.125 122 155.542969 123.417969 151.960938 C 127.964844 151.960938 132.507813 151.960938 137.199219 151.960938 C 137.066406 152.433594 136.984375 152.8125 136.855469 153.179688 C 133.917969 161.519531 127.988281 166.367188 119.363281 167.917969 C 114.6875 168.761719 110.019531 168.445313 105.4375 167.203125 C 98.578125 165.34375 93.695313 161.128906 91.265625 154.4375 C 88.207031 146.019531 87.890625 137.445313 90.835938 128.917969 C 93.046875 122.507813 97.246094 117.878906 103.722656 115.507813 C 105.898438 114.707031 108.152344 114.253906 110.453125 114.0625 C 114.511719 113.71875 118.523438 113.960938 122.417969 115.273438 C 128.898438 117.457031 133.1875 121.886719 135.605469 128.210938 C 136.902344 131.597656 137.546875 135.128906 137.742188 138.726563 C 137.851563 140.660156 137.765625 142.597656 137.765625 144.75 "/>
<path style=" stroke:none;fill-rule:evenodd;fill:rgb(13.699341%,12.199402%,12.5%);fill-opacity:1;" d="M 174.574219 0 C 177.535156 0.738281 180.511719 1.417969 183.449219 2.234375 C 187.894531 3.464844 192.1875 5.113281 196.257813 7.308594 C 199.585938 9.101563 202.664063 11.230469 205.308594 13.949219 C 208.75 17.488281 211.054688 21.621094 211.828125 26.542969 C 212.488281 30.746094 211.929688 34.832031 210.605469 38.839844 C 209.167969 43.175781 206.945313 47.097656 204.261719 50.769531 C 199.785156 56.886719 194.332031 62.027344 188.273438 66.542969 C 176.476563 75.34375 163.34375 81.398438 149.1875 85.285156 C 141.691406 87.34375 134.070313 88.710938 126.3125 89.21875 C 122.929688 89.441406 119.539063 89.550781 116.148438 89.710938 C 116.140625 89.625 116.132813 89.539063 116.125 89.453125 C 117.347656 89.300781 118.570313 89.148438 119.792969 88.996094 C 134.25 87.199219 148.328125 83.988281 161.632813 77.871094 C 167.71875 75.074219 173.414063 71.652344 178.480469 67.238281 C 183.644531 62.742188 187.78125 57.480469 190.378906 51.101563 C 192.714844 45.355469 193.628906 39.371094 193.171875 33.191406 C 192.164063 19.59375 186.058594 8.820313 175.128906 0.734375 C 174.910156 0.574219 174.699219 0.398438 174.484375 0.226563 C 174.515625 0.152344 174.546875 0.0742188 174.574219 0 "/>
<path style=" stroke:none;fill-rule:evenodd;fill:rgb(13.699341%,12.199402%,12.5%);fill-opacity:1;" d="M 59.429688 115.371094 C 63.726563 115.371094 67.941406 115.371094 72.300781 115.371094 C 72.300781 118.292969 72.300781 121.136719 72.300781 123.976563 C 72.375 124 72.453125 124.027344 72.53125 124.050781 C 72.707031 123.816406 72.898438 123.597656 73.054688 123.351563 C 73.824219 122.117188 74.527344 120.839844 75.359375 119.652344 C 78.621094 115.011719 83.222656 113.476563 88.691406 114.039063 C 88.847656 114.054688 88.996094 114.125 89.222656 114.191406 C 89.222656 118.652344 89.222656 123.113281 89.222656 127.710938 C 88.828125 127.710938 88.445313 127.695313 88.058594 127.710938 C 86.003906 127.785156 83.925781 127.691406 81.90625 127.984375 C 76.800781 128.722656 73.628906 132.140625 73.070313 137.289063 C 72.941406 138.488281 72.871094 139.703125 72.871094 140.910156 C 72.851563 149.066406 72.863281 157.226563 72.863281 165.382813 C 72.863281 165.859375 72.863281 166.335938 72.863281 166.894531 C 68.335938 166.894531 63.921875 166.894531 59.429688 166.894531 C 59.429688 149.75 59.429688 132.644531 59.429688 115.371094 "/>
<path style=" stroke:none;fill-rule:evenodd;fill:rgb(13.699341%,12.199402%,12.5%);fill-opacity:1;" d="M 277.316406 114.25 C 277.316406 118.738281 277.316406 123.167969 277.316406 127.699219 C 276.832031 127.699219 276.402344 127.707031 275.972656 127.699219 C 273.671875 127.667969 271.375 127.566406 269.105469 128.125 C 264.523438 129.261719 261.773438 132.273438 261.175781 136.949219 C 261.019531 138.148438 260.941406 139.363281 260.9375 140.570313 C 260.921875 148.847656 260.929688 157.125 260.929688 165.402344 C 260.929688 165.878906 260.929688 166.351563 260.929688 166.902344 C 256.390625 166.902344 251.976563 166.902344 247.488281 166.902344 C 247.488281 149.734375 247.488281 132.632813 247.488281 115.539063 C 248.394531 115.21875 259.042969 115.167969 260.382813 115.507813 C 260.382813 118.304688 260.382813 121.144531 260.382813 123.980469 C 260.460938 124.003906 260.539063 124.027344 260.621094 124.050781 C 260.808594 123.773438 261 123.496094 261.183594 123.214844 C 262.179688 121.699219 263.058594 120.089844 264.191406 118.683594 C 267.46875 114.609375 271.902344 113.515625 276.894531 114.066406 C 277.011719 114.078125 277.113281 114.160156 277.316406 114.25 "/>
<path style=" stroke:none;fill-rule:evenodd;fill:rgb(13.699341%,12.199402%,12.5%);fill-opacity:1;" d="M 299.558594 201.523438 C 299.597656 199.679688 299.28125 197.902344 298.5 196.226563 C 297.363281 193.8125 295.460938 192.496094 292.769531 192.488281 C 290.085938 192.488281 288.121094 193.753906 287.035156 196.203125 C 285.484375 199.703125 285.484375 203.265625 287.046875 206.761719 C 288.140625 209.195313 290.082031 210.453125 292.792969 210.441406 C 295.507813 210.429688 297.375 209.101563 298.507813 206.695313 C 299.273438 205.0625 299.585938 203.320313 299.558594 201.523438 Z M 281.972656 200.808594 C 281.960938 198.9375 282.476563 196.507813 283.777344 194.292969 C 285.988281 190.53125 289.363281 188.945313 293.644531 189.25 C 298.0625 189.5625 300.984375 191.976563 302.542969 196.015625 C 304.066406 199.960938 303.972656 203.941406 302.171875 207.789063 C 300.304688 211.761719 297.089844 213.75 292.710938 213.738281 C 288.324219 213.722656 285.179688 211.667969 283.28125 207.714844 C 282.394531 205.863281 281.976563 203.773438 281.972656 200.808594 "/>
<path style=" stroke:none;fill-rule:evenodd;fill:rgb(13.699341%,12.199402%,12.5%);fill-opacity:1;" d="M 277.863281 196.328125 C 276.644531 196.328125 275.496094 196.328125 274.363281 196.328125 C 274.289063 196.160156 274.214844 196.054688 274.199219 195.941406 C 273.867188 193.851563 272.449219 192.988281 270.535156 192.648438 C 268.988281 192.375 267.472656 192.414063 266.007813 193.003906 C 264.605469 193.5625 263.9375 194.601563 263.96875 195.984375 C 263.992188 196.917969 264.378906 197.640625 265.230469 198.023438 C 265.925781 198.339844 266.65625 198.589844 267.390625 198.792969 C 268.988281 199.226563 270.605469 199.585938 272.199219 200.023438 C 273.167969 200.289063 274.140625 200.582031 275.066406 200.972656 C 277.886719 202.164063 279.277344 204.070313 278.445313 207.949219 C 277.84375 210.746094 275.886719 212.394531 273.265625 213.210938 C 270.203125 214.167969 267.105469 214.023438 264.105469 212.917969 C 261.105469 211.808594 259.378906 209.019531 259.625 205.824219 C 260.765625 205.824219 261.910156 205.824219 263.136719 205.824219 C 263.214844 206.1875 263.28125 206.539063 263.359375 206.886719 C 263.683594 208.28125 264.46875 209.335938 265.800781 209.847656 C 268.023438 210.710938 270.304688 210.773438 272.546875 209.921875 C 273.882813 209.410156 274.742188 208.453125 274.828125 206.929688 C 274.890625 205.796875 274.464844 204.917969 273.429688 204.476563 C 272.398438 204.027344 271.320313 203.675781 270.234375 203.375 C 268.601563 202.921875 266.929688 202.609375 265.3125 202.121094 C 264.316406 201.820313 263.328125 201.410156 262.445313 200.867188 C 261.003906 199.984375 260.324219 198.585938 260.257813 196.902344 C 260.132813 193.722656 261.683594 191.238281 264.636719 190.042969 C 267.527344 188.878906 270.480469 188.867188 273.390625 189.953125 C 275.859375 190.871094 277.273438 192.75 277.804688 195.308594 C 277.867188 195.609375 277.84375 195.929688 277.863281 196.328125 "/>
<g clip-path="url(#clip3)" clip-rule="nonzero">
<path style=" stroke:none;fill-rule:evenodd;fill:rgb(13.699341%,12.199402%,12.5%);fill-opacity:1;" d="M 306.773438 205.808594 C 307.960938 205.808594 309.070313 205.808594 310.25 205.808594 C 310.359375 206.242188 310.46875 206.664063 310.574219 207.082031 C 310.910156 208.4375 311.746094 209.398438 313.027344 209.882813 C 315.175781 210.691406 317.371094 210.738281 319.546875 209.980469 C 320.757813 209.558594 321.628906 208.765625 321.921875 207.453125 C 322.214844 206.144531 321.8125 205.109375 320.625 204.5 C 319.878906 204.113281 319.066406 203.828125 318.253906 203.605469 C 316.425781 203.105469 314.578125 202.679688 312.742188 202.210938 C 312.234375 202.078125 311.730469 201.933594 311.242188 201.746094 C 307.910156 200.460938 306.898438 198.113281 307.644531 194.671875 C 308.085938 192.652344 309.347656 191.1875 311.195313 190.320313 C 314.441406 188.796875 317.78125 188.742188 321.046875 190.183594 C 323.59375 191.308594 324.804688 193.464844 325.070313 196.3125 C 323.847656 196.3125 322.699219 196.3125 321.484375 196.3125 C 321.4375 196.1875 321.363281 196.046875 321.339844 195.898438 C 321.082031 194.222656 320.054688 193.257813 318.472656 192.828125 C 316.714844 192.351563 314.957031 192.308594 313.234375 192.972656 C 311.78125 193.527344 311.046875 194.621094 311.105469 196.015625 C 311.140625 196.894531 311.507813 197.601563 312.300781 197.976563 C 312.984375 198.308594 313.714844 198.570313 314.449219 198.769531 C 316.355469 199.285156 318.296875 199.691406 320.1875 200.265625 C 321.335938 200.613281 322.46875 201.089844 323.511719 201.679688 C 324.882813 202.460938 325.605469 203.6875 325.699219 205.34375 C 325.917969 209.421875 324.0625 212.179688 320.132813 213.296875 C 317.214844 214.128906 314.285156 213.980469 311.4375 212.988281 C 308.324219 211.898438 306.667969 209.320313 306.773438 205.808594 "/>
</g>
<path style=" stroke:none;fill-rule:evenodd;fill:rgb(13.699341%,12.199402%,12.5%);fill-opacity:1;" d="M 236.265625 189.921875 C 237.632813 189.921875 238.789063 189.921875 240.019531 189.921875 C 240.019531 197.632813 240.019531 205.28125 240.019531 213.101563 C 239.433594 213.101563 238.882813 213.101563 238.332031 213.101563 C 237.773438 213.101563 237.21875 213.101563 236.546875 213.101563 C 236.546875 211.992188 236.546875 210.996094 236.546875 209.734375 C 236.171875 210.085938 235.972656 210.230469 235.824219 210.421875 C 233.234375 213.808594 228.675781 214.839844 224.875 212.886719 C 222.792969 211.8125 221.742188 210.046875 221.480469 207.769531 C 221.414063 207.210938 221.429688 206.644531 221.429688 206.078125 C 221.425781 201.152344 221.425781 196.226563 221.425781 191.300781 C 221.425781 190.867188 221.425781 190.433594 221.425781 189.929688 C 222.714844 189.929688 223.871094 189.929688 225.1875 189.929688 C 225.207031 190.335938 225.25 190.761719 225.25 191.183594 C 225.253906 195.824219 225.238281 200.46875 225.265625 205.109375 C 225.273438 205.949219 225.351563 206.816406 225.570313 207.621094 C 226.039063 209.316406 227.242188 210.242188 228.980469 210.4375 C 232.28125 210.800781 234.769531 209.222656 235.730469 206.035156 C 236.066406 204.929688 236.222656 203.738281 236.242188 202.585938 C 236.304688 198.832031 236.265625 195.074219 236.265625 191.320313 C 236.265625 190.886719 236.265625 190.453125 236.265625 189.921875 "/>
<path style=" stroke:none;fill-rule:evenodd;fill:rgb(13.699341%,12.199402%,12.5%);fill-opacity:1;" d="M 246.738281 189.914063 C 247.886719 189.914063 248.960938 189.914063 250.175781 189.914063 C 250.175781 191.078125 250.175781 192.226563 250.175781 193.375 C 250.253906 193.410156 250.335938 193.441406 250.417969 193.476563 C 250.601563 193.265625 250.808594 193.074219 250.964844 192.847656 C 251.726563 191.734375 252.589844 190.726563 253.777344 190.054688 C 255.035156 189.34375 256.367188 188.996094 257.878906 189.351563 C 257.878906 190.644531 257.878906 191.875 257.878906 193.238281 C 257.417969 193.265625 256.988281 193.320313 256.5625 193.316406 C 252.578125 193.269531 250.472656 196.480469 250.476563 199.472656 C 250.480469 203.507813 250.476563 207.546875 250.472656 211.582031 C 250.472656 212.019531 250.472656 212.457031 250.472656 212.960938 C 249.203125 213.214844 248.015625 213.070313 246.738281 213.078125 C 246.738281 205.351563 246.738281 197.703125 246.738281 189.914063 "/>
</g>
</svg>
